<?xml version="1.0" encoding="utf-8"?>
<svg viewBox="0 0 203 56" fill="none" xmlns="http://www.w3.org/2000/svg">
  <rect x="10.6521" y="9.65234" width="34.6957" height="34.6957" rx="3.30435" fill="#4ABA73"/>
  <path d="M39.3695 32.6319C39.7184 32.428 39.8358 31.9798 39.6318 31.6309C39.4278 31.2821 38.9797 31.1647 38.6308 31.3686L39.3695 32.6319ZM28.0972 38.3758L27.7278 37.7442L27.7278 37.7442L28.0972 38.3758ZM26.9413 38.3462L27.3425 37.7343L27.3425 37.7343L26.9413 38.3462ZM16.9014 30.8882C16.5635 30.6666 16.1099 30.7609 15.8883 31.0988C15.6667 31.4368 15.761 31.8904 16.099 32.112L16.9014 30.8882ZM38.6308 31.3686L27.7278 37.7442L28.4665 39.0075L39.3695 32.6319L38.6308 31.3686ZM27.3425 37.7343L16.9014 30.8882L16.099 32.112L26.5401 38.9581L27.3425 37.7343ZM27.7278 37.7442C27.6079 37.8143 27.4587 37.8105 27.3425 37.7343L26.5401 38.9581C27.1208 39.3389 27.8671 39.358 28.4665 39.0075L27.7278 37.7442Z" fill="white"/>
  <path d="M39.3693 27.6317C39.7181 27.4277 39.8356 26.9795 39.6316 26.6307C39.4276 26.2819 38.9794 26.1644 38.6306 26.3684L39.3693 27.6317ZM28.0971 33.3759L28.4665 34.0076L28.4665 34.0076L28.0971 33.3759ZM26.9412 33.3463L26.54 33.9582L26.54 33.9582L26.9412 33.3463ZM16.9012 25.8884C16.5632 25.6668 16.1096 25.7611 15.8881 26.0991C15.6665 26.437 15.7608 26.8906 16.0988 27.1122L16.9012 25.8884ZM38.6306 26.3684L27.7277 32.7443L28.4665 34.0076L39.3693 27.6317L38.6306 26.3684ZM27.3424 32.7344L16.9012 25.8884L16.0988 27.1122L26.54 33.9582L27.3424 32.7344ZM27.7277 32.7443C27.6078 32.8144 27.4586 32.8106 27.3424 32.7344L26.54 33.9582C27.1207 34.339 27.867 34.3581 28.4665 34.0076L27.7277 32.7443Z" fill="white"/>
  <path d="M38.8091 22.4664L27.7445 28.7228C27.624 28.7909 27.4753 28.7852 27.3604 28.7081L16.8935 21.6793C16.6672 21.5273 16.6806 21.1901 16.9183 21.0566L27.5194 15.0998C27.6352 15.0347 27.7772 15.0375 27.8904 15.1072L33.8723 18.7899L38.8208 21.8364C39.058 21.9824 39.0515 22.3293 38.8091 22.4664Z" fill="#4ABA73" stroke="white" stroke-width="1.46342"/>
  <path d="M 59.047 17.371 Q 62.266 17.371 64.688 18.604 Q 67.109 19.836 68.429 22.142 Q 69.748 24.447 69.748 27.521 Q 69.748 30.595 68.429 32.857 Q 67.109 35.119 64.688 36.323 Q 62.266 37.526 59.047 37.526 L 52.464 37.526 L 52.464 17.371 L 59.047 17.371 Z M 59.047 34.829 Q 62.585 34.829 64.47 32.915 Q 66.355 31.001 66.355 27.521 Q 66.355 24.012 64.47 22.04 Q 62.585 20.068 59.047 20.068 L 55.77 20.068 L 55.77 34.829 L 59.047 34.829 Z" style="fill: rgb(255, 255, 255); white-space: pre;"/>
  <path d="M 71.912 29.464 Q 71.912 27.057 72.913 25.201 Q 73.913 23.345 75.639 22.316 Q 77.364 21.286 79.452 21.286 Q 81.337 21.286 82.744 22.026 Q 84.15 22.765 84.991 23.867 L 84.991 21.547 L 88.326 21.547 L 88.326 37.526 L 84.991 37.526 L 84.991 35.148 Q 84.15 36.279 82.7 37.033 Q 81.25 37.787 79.394 37.787 Q 77.335 37.787 75.624 36.729 Q 73.913 35.67 72.913 33.771 Q 71.912 31.871 71.912 29.464 Z M 84.991 29.522 Q 84.991 27.869 84.31 26.651 Q 83.628 25.433 82.526 24.795 Q 81.424 24.157 80.148 24.157 Q 78.872 24.157 77.77 24.781 Q 76.668 25.404 75.987 26.608 Q 75.305 27.811 75.305 29.464 Q 75.305 31.117 75.987 32.364 Q 76.668 33.611 77.785 34.264 Q 78.901 34.916 80.148 34.916 Q 81.424 34.916 82.526 34.278 Q 83.628 33.64 84.31 32.408 Q 84.991 31.175 84.991 29.522 Z" style="fill: rgb(255, 255, 255); white-space: pre;"/>
  <path d="M 96.534 24.244 L 96.534 33.089 Q 96.534 33.988 96.954 34.38 Q 97.375 34.771 98.39 34.771 L 100.42 34.771 L 100.42 37.526 L 97.81 37.526 Q 95.577 37.526 94.388 36.482 Q 93.199 35.438 93.199 33.089 L 93.199 24.244 L 91.314 24.244 L 91.314 21.547 L 93.199 21.547 L 93.199 17.574 L 96.534 17.574 L 96.534 21.547 L 100.42 21.547 L 100.42 24.244 Z" style="fill: rgb(255, 255, 255); white-space: pre;"/>
  <path d="M 102.362 29.464 Q 102.362 27.057 103.363 25.201 Q 104.363 23.345 106.089 22.316 Q 107.814 21.286 109.902 21.286 Q 111.787 21.286 113.194 22.026 Q 114.6 22.765 115.441 23.867 L 115.441 21.547 L 118.776 21.547 L 118.776 37.526 L 115.441 37.526 L 115.441 35.148 Q 114.6 36.279 113.15 37.033 Q 111.7 37.787 109.844 37.787 Q 107.785 37.787 106.074 36.729 Q 104.363 35.67 103.363 33.771 Q 102.362 31.871 102.362 29.464 Z M 115.441 29.522 Q 115.441 27.869 114.76 26.651 Q 114.078 25.433 112.976 24.795 Q 111.874 24.157 110.598 24.157 Q 109.322 24.157 108.22 24.781 Q 107.118 25.404 106.437 26.608 Q 105.755 27.811 105.755 29.464 Q 105.755 31.117 106.437 32.364 Q 107.118 33.611 108.235 34.264 Q 109.351 34.916 110.598 34.916 Q 111.874 34.916 112.976 34.278 Q 114.078 33.64 114.76 32.408 Q 115.441 31.175 115.441 29.522 Z" style="fill: rgb(255, 255, 255); white-space: pre;"/>
  <path d="M 140.497 17.371 L 132.928 37.526 L 129.1 37.526 L 121.502 17.371 L 125.04 17.371 L 131.014 34.133 L 137.017 17.371 Z" style="fill: rgb(255, 255, 255); white-space: pre;"/>
  <path d="M 142.15 29.464 Q 142.15 27.057 143.15 25.201 Q 144.151 23.345 145.876 22.316 Q 147.602 21.286 149.69 21.286 Q 151.575 21.286 152.981 22.026 Q 154.388 22.765 155.229 23.867 L 155.229 21.547 L 158.564 21.547 L 158.564 37.526 L 155.229 37.526 L 155.229 35.148 Q 154.388 36.279 152.938 37.033 Q 151.488 37.787 149.632 37.787 Q 147.573 37.787 145.862 36.729 Q 144.151 35.67 143.15 33.771 Q 142.15 31.871 142.15 29.464 Z M 155.229 29.522 Q 155.229 27.869 154.547 26.651 Q 153.866 25.433 152.764 24.795 Q 151.662 24.157 150.386 24.157 Q 149.11 24.157 148.008 24.781 Q 146.906 25.404 146.224 26.608 Q 145.543 27.811 145.543 29.464 Q 145.543 31.117 146.224 32.364 Q 146.906 33.611 148.022 34.264 Q 149.139 34.916 150.386 34.916 Q 151.662 34.916 152.764 34.278 Q 153.866 33.64 154.547 32.408 Q 155.229 31.175 155.229 29.522 Z" style="fill: rgb(255, 255, 255); white-space: pre;"/>
  <path d="M 177.385 21.547 L 177.385 37.526 L 174.079 37.526 L 174.079 35.641 Q 173.296 36.627 172.034 37.193 Q 170.773 37.758 169.352 37.758 Q 167.467 37.758 165.973 36.975 Q 164.48 36.192 163.624 34.655 Q 162.769 33.118 162.769 30.943 L 162.769 21.547 L 166.046 21.547 L 166.046 30.45 Q 166.046 32.596 167.119 33.742 Q 168.192 34.887 170.048 34.887 Q 171.904 34.887 172.991 33.742 Q 174.079 32.596 174.079 30.45 L 174.079 21.547 Z" style="fill: rgb(255, 255, 255); white-space: pre;"/>
  <path d="M 185.045 16.066 L 185.045 37.526 L 181.739 37.526 L 181.739 16.066 Z" style="fill: rgb(255, 255, 255); white-space: pre;"/>
  <path d="M 193.259 24.244 L 193.259 33.089 Q 193.259 33.988 193.679 34.38 Q 194.1 34.771 195.115 34.771 L 197.145 34.771 L 197.145 37.526 L 194.535 37.526 Q 192.302 37.526 191.113 36.482 Q 189.924 35.438 189.924 33.089 L 189.924 24.244 L 188.039 24.244 L 188.039 21.547 L 189.924 21.547 L 189.924 17.574 L 193.259 17.574 L 193.259 21.547 L 197.145 21.547 L 197.145 24.244 Z" style="fill: rgb(255, 255, 255); white-space: pre;"/>
</svg>